<mxfile host="app.diagrams.net" modified="2024-04-11T00:51:28.878Z" agent="Mozilla/5.0 (Windows NT 10.0; Win64; x64) AppleWebKit/537.36 (KHTML, like Gecko) Chrome/123.0.0.0 Safari/537.36" etag="HgS8FUKo5C4jcLlCgQmo" version="24.2.2" type="device">
  <diagram name="Página-1" id="b7QJJJTIgFT5pQUsgSe5">
    <mxGraphModel dx="1034" dy="446" grid="1" gridSize="10" guides="1" tooltips="1" connect="1" arrows="1" fold="1" page="1" pageScale="1" pageWidth="827" pageHeight="1169" math="0" shadow="0">
      <root>
        <mxCell id="0" />
        <mxCell id="1" parent="0" />
        <mxCell id="5lIVDZ1oWufqyb-142TZ-1" value="" style="rounded=0;whiteSpace=wrap;html=1;" vertex="1" parent="1">
          <mxGeometry x="130" y="80" width="120" height="60" as="geometry" />
        </mxCell>
        <mxCell id="5lIVDZ1oWufqyb-142TZ-8" value="" style="rounded=0;whiteSpace=wrap;html=1;" vertex="1" parent="1">
          <mxGeometry x="360" y="80" width="120" height="60" as="geometry" />
        </mxCell>
        <mxCell id="5lIVDZ1oWufqyb-142TZ-9" value="" style="rounded=0;whiteSpace=wrap;html=1;" vertex="1" parent="1">
          <mxGeometry x="590" y="80" width="120" height="60" as="geometry" />
        </mxCell>
        <mxCell id="5lIVDZ1oWufqyb-142TZ-10" value="" style="rhombus;whiteSpace=wrap;html=1;" vertex="1" parent="1">
          <mxGeometry x="280" y="95" width="50" height="35" as="geometry" />
        </mxCell>
        <mxCell id="5lIVDZ1oWufqyb-142TZ-11" value="" style="rhombus;whiteSpace=wrap;html=1;" vertex="1" parent="1">
          <mxGeometry x="510" y="95" width="50" height="35" as="geometry" />
        </mxCell>
        <mxCell id="5lIVDZ1oWufqyb-142TZ-12" value="MEMBROS" style="text;html=1;align=center;verticalAlign=middle;whiteSpace=wrap;rounded=0;" vertex="1" parent="1">
          <mxGeometry x="150" y="92.5" width="80" height="35" as="geometry" />
        </mxCell>
        <mxCell id="5lIVDZ1oWufqyb-142TZ-13" value="MEMBROS_TAREFA" style="text;html=1;align=center;verticalAlign=middle;whiteSpace=wrap;rounded=0;" vertex="1" parent="1">
          <mxGeometry x="400" y="97.5" width="40" height="30" as="geometry" />
        </mxCell>
        <mxCell id="5lIVDZ1oWufqyb-142TZ-14" value="TAREFAS" style="text;html=1;align=center;verticalAlign=middle;whiteSpace=wrap;rounded=0;" vertex="1" parent="1">
          <mxGeometry x="605" y="95" width="90" height="30" as="geometry" />
        </mxCell>
        <mxCell id="5lIVDZ1oWufqyb-142TZ-15" value="id_membro(PK)" style="text;html=1;align=center;verticalAlign=middle;whiteSpace=wrap;rounded=0;rotation=90;" vertex="1" parent="1">
          <mxGeometry x="130" y="180" width="60" height="20" as="geometry" />
        </mxCell>
        <mxCell id="5lIVDZ1oWufqyb-142TZ-16" value="nome" style="text;html=1;align=center;verticalAlign=middle;whiteSpace=wrap;rounded=0;rotation=90;" vertex="1" parent="1">
          <mxGeometry x="150" y="150" width="70" height="30" as="geometry" />
        </mxCell>
        <mxCell id="5lIVDZ1oWufqyb-142TZ-17" value="id_tarefa(PK)" style="text;html=1;align=center;verticalAlign=middle;whiteSpace=wrap;rounded=0;rotation=90;" vertex="1" parent="1">
          <mxGeometry x="600" y="165" width="60" height="30" as="geometry" />
        </mxCell>
        <mxCell id="5lIVDZ1oWufqyb-142TZ-18" value="data_inicio" style="text;html=1;align=center;verticalAlign=middle;whiteSpace=wrap;rounded=0;rotation=90;" vertex="1" parent="1">
          <mxGeometry x="625" y="165" width="50" height="25" as="geometry" />
        </mxCell>
        <mxCell id="5lIVDZ1oWufqyb-142TZ-19" value="id_membro(FK)" style="text;html=1;align=center;verticalAlign=middle;whiteSpace=wrap;rounded=0;rotation=90;" vertex="1" parent="1">
          <mxGeometry x="354" y="170" width="60" height="30" as="geometry" />
        </mxCell>
        <mxCell id="5lIVDZ1oWufqyb-142TZ-20" value="id_tarefas(FK)" style="text;html=1;align=center;verticalAlign=middle;whiteSpace=wrap;rounded=0;rotation=90;" vertex="1" parent="1">
          <mxGeometry x="380" y="170" width="60" height="30" as="geometry" />
        </mxCell>
        <mxCell id="5lIVDZ1oWufqyb-142TZ-21" value="descrição" style="text;html=1;align=center;verticalAlign=middle;whiteSpace=wrap;rounded=0;rotation=90;" vertex="1" parent="1">
          <mxGeometry x="640" y="160" width="60" height="30" as="geometry" />
        </mxCell>
        <mxCell id="5lIVDZ1oWufqyb-142TZ-22" value="papel" style="text;html=1;align=center;verticalAlign=middle;whiteSpace=wrap;rounded=0;rotation=90;" vertex="1" parent="1">
          <mxGeometry x="410" y="150" width="60" height="30" as="geometry" />
        </mxCell>
        <mxCell id="5lIVDZ1oWufqyb-142TZ-23" value="horas_alocadas" style="text;html=1;align=center;verticalAlign=middle;whiteSpace=wrap;rounded=0;rotation=90;" vertex="1" parent="1">
          <mxGeometry x="440" y="175" width="60" height="30" as="geometry" />
        </mxCell>
        <mxCell id="5lIVDZ1oWufqyb-142TZ-25" value="" style="endArrow=none;html=1;rounded=0;entryX=0;entryY=0.5;entryDx=0;entryDy=0;" edge="1" parent="1" target="5lIVDZ1oWufqyb-142TZ-10">
          <mxGeometry width="50" height="50" relative="1" as="geometry">
            <mxPoint x="250" y="112" as="sourcePoint" />
            <mxPoint x="270" y="112" as="targetPoint" />
          </mxGeometry>
        </mxCell>
        <mxCell id="5lIVDZ1oWufqyb-142TZ-26" value="" style="endArrow=none;html=1;rounded=0;" edge="1" parent="1">
          <mxGeometry width="50" height="50" relative="1" as="geometry">
            <mxPoint x="330" y="112" as="sourcePoint" />
            <mxPoint x="360" y="112" as="targetPoint" />
          </mxGeometry>
        </mxCell>
        <mxCell id="5lIVDZ1oWufqyb-142TZ-27" value="" style="endArrow=none;html=1;rounded=0;" edge="1" parent="1">
          <mxGeometry width="50" height="50" relative="1" as="geometry">
            <mxPoint x="480" y="112" as="sourcePoint" />
            <mxPoint x="510" y="112" as="targetPoint" />
          </mxGeometry>
        </mxCell>
        <mxCell id="5lIVDZ1oWufqyb-142TZ-28" value="" style="endArrow=none;html=1;rounded=0;" edge="1" parent="1">
          <mxGeometry width="50" height="50" relative="1" as="geometry">
            <mxPoint x="560" y="112" as="sourcePoint" />
            <mxPoint x="590" y="112" as="targetPoint" />
          </mxGeometry>
        </mxCell>
        <mxCell id="5lIVDZ1oWufqyb-142TZ-29" value="" style="rounded=0;whiteSpace=wrap;html=1;" vertex="1" parent="1">
          <mxGeometry x="160" y="340" width="120" height="60" as="geometry" />
        </mxCell>
        <mxCell id="5lIVDZ1oWufqyb-142TZ-34" value="VENDEDOR" style="text;html=1;align=center;verticalAlign=middle;whiteSpace=wrap;rounded=0;" vertex="1" parent="1">
          <mxGeometry x="190" y="355" width="60" height="30" as="geometry" />
        </mxCell>
        <mxCell id="5lIVDZ1oWufqyb-142TZ-37" value="cod_vendedor(PK)" style="text;html=1;align=center;verticalAlign=middle;whiteSpace=wrap;rounded=0;rotation=90;" vertex="1" parent="1">
          <mxGeometry x="155" y="440" width="60" height="30" as="geometry" />
        </mxCell>
        <mxCell id="5lIVDZ1oWufqyb-142TZ-38" value="quantidade_vendida" style="text;html=1;align=center;verticalAlign=middle;whiteSpace=wrap;rounded=0;rotation=90;" vertex="1" parent="1">
          <mxGeometry x="380" y="450" width="60" height="30" as="geometry" />
        </mxCell>
        <mxCell id="5lIVDZ1oWufqyb-142TZ-39" value="Cod_prod." style="text;html=1;align=center;verticalAlign=middle;whiteSpace=wrap;rounded=0;rotation=90;" vertex="1" parent="1">
          <mxGeometry x="350" y="420" width="60" height="30" as="geometry" />
        </mxCell>
        <mxCell id="5lIVDZ1oWufqyb-142TZ-40" value="nome_vend." style="text;html=1;align=center;verticalAlign=middle;whiteSpace=wrap;rounded=0;rotation=90;" vertex="1" parent="1">
          <mxGeometry x="190" y="430" width="60" height="30" as="geometry" />
        </mxCell>
        <mxCell id="5lIVDZ1oWufqyb-142TZ-41" value="" style="rounded=0;whiteSpace=wrap;html=1;" vertex="1" parent="1">
          <mxGeometry x="354" y="340" width="120" height="60" as="geometry" />
        </mxCell>
        <mxCell id="5lIVDZ1oWufqyb-142TZ-43" value="NF&#39;s" style="text;html=1;align=center;verticalAlign=middle;whiteSpace=wrap;rounded=0;" vertex="1" parent="1">
          <mxGeometry x="380" y="355" width="60" height="30" as="geometry" />
        </mxCell>
        <mxCell id="5lIVDZ1oWufqyb-142TZ-44" value="nota_fiscal(PK)" style="text;html=1;align=center;verticalAlign=middle;whiteSpace=wrap;rounded=0;rotation=90;" vertex="1" parent="1">
          <mxGeometry x="410" y="430" width="60" height="30" as="geometry" />
        </mxCell>
        <mxCell id="5lIVDZ1oWufqyb-142TZ-45" value="cod_vendedor(FK)" style="text;html=1;align=center;verticalAlign=middle;whiteSpace=wrap;rounded=0;rotation=90;" vertex="1" parent="1">
          <mxGeometry x="430" y="440" width="60" height="30" as="geometry" />
        </mxCell>
        <mxCell id="5lIVDZ1oWufqyb-142TZ-46" value="" style="rhombus;whiteSpace=wrap;html=1;" vertex="1" parent="1">
          <mxGeometry x="280" y="350" width="70" height="40" as="geometry" />
        </mxCell>
        <mxCell id="5lIVDZ1oWufqyb-142TZ-47" value="1:N&lt;span style=&quot;color: rgba(0, 0, 0, 0); font-family: monospace; font-size: 0px; text-align: start; text-wrap: nowrap;&quot;&gt;%3CmxGraphModel%3E%3Croot%3E%3CmxCell%20id%3D%220%22%2F%3E%3CmxCell%20id%3D%221%22%20parent%3D%220%22%2F%3E%3CmxCell%20id%3D%222%22%20value%3D%22cod_vendedor%22%20style%3D%22text%3Bhtml%3D1%3Balign%3Dcenter%3BverticalAlign%3Dmiddle%3BwhiteSpace%3Dwrap%3Brounded%3D0%3Brotation%3D90%3B%22%20vertex%3D%221%22%20parent%3D%221%22%3E%3CmxGeometry%20x%3D%22155%22%20y%3D%22440%22%20width%3D%2260%22%20height%3D%2230%22%20as%3D%22geometry%22%2F%3E%3C%2FmxCell%3E%3C%2Froot%3E%3C%2FmxGraphModel%3E&lt;/span&gt;" style="text;html=1;align=center;verticalAlign=middle;whiteSpace=wrap;rounded=0;" vertex="1" parent="1">
          <mxGeometry x="290" y="300" width="60" height="30" as="geometry" />
        </mxCell>
        <mxCell id="5lIVDZ1oWufqyb-142TZ-49" value="Ex1L3" style="text;html=1;align=center;verticalAlign=middle;whiteSpace=wrap;rounded=0;" vertex="1" parent="1">
          <mxGeometry x="60" y="20" width="60" height="30" as="geometry" />
        </mxCell>
        <mxCell id="5lIVDZ1oWufqyb-142TZ-50" value="Ex2L3" style="text;html=1;align=center;verticalAlign=middle;whiteSpace=wrap;rounded=0;" vertex="1" parent="1">
          <mxGeometry x="60" y="300" width="60" height="30" as="geometry" />
        </mxCell>
      </root>
    </mxGraphModel>
  </diagram>
</mxfile>
